<svg xmlns="http://www.w3.org/2000/svg" viewBox="0 0 640 360" role="img" aria-label="Northline Studio cover">
  <rect width="640" height="360" fill="#eeece5"/>
  <g fill="#3d7068">
    <rect x="70" y="120" width="90" height="180"/>
    <rect x="180" y="80" width="90" height="220"/>
    <rect x="290" y="150" width="90" height="150"/>
    <rect x="400" y="60" width="90" height="240"/>
    <rect x="510" y="130" width="70" height="170"/>
  </g>
  <g fill="#fafaf8" opacity="0.85">
    <rect x="90" y="150" width="18" height="18"/><rect x="122" y="150" width="18" height="18"/>
    <rect x="90" y="190" width="18" height="18"/><rect x="122" y="190" width="18" height="18"/>
    <rect x="200" y="110" width="18" height="18"/><rect x="232" y="110" width="18" height="18"/>
    <rect x="200" y="150" width="18" height="18"/><rect x="232" y="150" width="18" height="18"/>
    <rect x="420" y="90" width="18" height="18"/><rect x="452" y="90" width="18" height="18"/>
    <rect x="420" y="130" width="18" height="18"/><rect x="452" y="130" width="18" height="18"/>
  </g>
  <line x1="40" y1="300" x2="600" y2="300" stroke="#14171f" stroke-width="2"/>
  <text x="40" y="60" font-family="'Space Grotesk', sans-serif" font-size="26" fill="#14171f" font-weight="700">Northline Studio</text>
</svg>
