<svg xmlns="http://www.w3.org/2000/svg" viewBox="0 0 640 360" role="img" aria-label="Trailmark cover">
  <rect width="640" height="360" fill="#0f3b36"/>
  <rect width="640" height="360" fill="url(#g)"/>
  <defs>
    <linearGradient id="g" x1="0" y1="0" x2="0" y2="1">
      <stop offset="0" stop-color="#3d7068" stop-opacity="0.5"/>
      <stop offset="1" stop-color="#0f3b36"/>
    </linearGradient>
  </defs>
  <path d="M0 300 L120 200 L200 250 L320 150 L420 210 L520 120 L640 190 L640 360 L0 360 Z"
    fill="#14171f" opacity="0.55"/>
  <path d="M0 320 L100 260 L220 300 L340 230 L460 280 L560 220 L640 260 L640 360 L0 360 Z"
    fill="#0b2b28"/>
  <path d="M70 300 C 160 240, 220 320, 320 250 S 500 180, 590 230"
    fill="none" stroke="#c9a227" stroke-width="4" stroke-dasharray="2 12" stroke-linecap="round"/>
  <g fill="#e7efee">
    <circle cx="70" cy="300" r="7"/>
    <path d="M590 210 l10 20 h-20 z"/>
  </g>
  <text x="40" y="60" font-family="'IBM Plex Mono', monospace" font-size="20" fill="#e7efee" font-weight="600">◇ trailmark — offline routes</text>
</svg>
